<svg fill="none" height="16" viewBox="0 0 16 16" width="16" xmlns="http://www.w3.org/2000/svg"><path clip-rule="evenodd" d="m8.00004 14.6666c-3.682 0-6.66667-2.9846-6.66667-6.66662 0-3.682 2.98467-6.66667 6.66667-6.66667 3.68196 0 6.66666 2.98467 6.66666 6.66667 0 3.68202-2.9847 6.66662-6.66666 6.66662zm0-1.3333c2.94556 0 5.33336-2.3878 5.33336-5.33332s-2.3878-5.33333-5.33336-5.33333c-2.94552 0-5.33333 2.38781-5.33333 5.33333s2.38781 5.33332 5.33333 5.33332zm-3.49333-5.49528 2.82867 2.82868 4.71402-4.71402-.9434-.94266-3.77062 3.77133-1.886-1.886z" fill="#001018" fill-rule="evenodd"/></svg>